# xmcd CD database file
# Generated: Sun Dec 30 10:23:49 2001 by KSCD
# 
# Track frame offsets:
#       187
#       16292
#       38512
#       53395
#       67150
#       92075
#       115312
#       126417
#       151570
#       162142
#       175027
#       190770
#       206065
#
# Disc length: 3032 seconds
#
# Revision: 3
# Processed by: cddbd v1.4PL0 Copyright (c) Steve Scherf et al.
# Submitted via: Kscd 1.3.2
#
DISCID=9f0bd60d
DTITLE=National People's Gang/Orange
DYEAR=1900
DGENRE=
TTITLE0=Gettin' Close To God
TTITLE1=Love Button
TTITLE2=Laughing Place
TTITLE3=Married To Men
TTITLE4=Breaking Ground
TTITLE5=Them
TTITLE6=Food Giant
TTITLE7=It Hurts
TTITLE8=The 59th St. Bridge Song (Feeling' Groovy)
TTITLE9=So Sad
TTITLE10=More Than Just
TTITLE11=White Boxes
TTITLE12=El Paso Sun
EXTD=
EXTT0=
EXTT1=
EXTT2=
EXTT3=
EXTT4=
EXTT5=
EXTT6=
EXTT7=
EXTT8=
EXTT9=
EXTT10=
EXTT11=
EXTT12=
PLAYORDER=
